<svg width="200" height="45" viewBox="0 0 200 45" fill="none" xmlns="http://www.w3.org/2000/svg">
<path fill-rule="evenodd" clip-rule="evenodd" d="M0 8C0 3.58172 3.58172 0 8 0H192C196.418 0 200 3.58172 200 8V37C200 41.4183 196.418 45 192 45H8C3.58173 45 0 41.4183 0 37V8Z" fill="#101010"/>
<path d="M71.048 18.926L67.72 28H65.51L62.182 18.926H64.132L66.628 26.141L69.111 18.926H71.048ZM75.4592 18.926V28H73.6392V18.926H75.4592ZM80.5774 20.395V22.67H83.6324V24.113H80.5774V26.518H84.0224V28H78.7574V18.913H84.0224V20.395H80.5774ZM99.3053 18.926L96.7703 28H94.6253L92.9223 21.539L91.1413 28L89.0093 28.013L86.5653 18.926H88.5153L90.1143 25.972L91.9603 18.926H93.9883L95.7303 25.933L97.3423 18.926H99.3053ZM112.766 18.926V20.395H110.348V28H108.528V20.395H106.11V18.926H112.766ZM117.414 18.926V28H115.594V18.926H117.414ZM127.329 21.734C127.329 22.2193 127.212 22.6743 126.978 23.099C126.753 23.5237 126.393 23.866 125.899 24.126C125.414 24.386 124.799 24.516 124.053 24.516H122.532V28H120.712V18.926H124.053C124.755 18.926 125.353 19.0473 125.847 19.29C126.341 19.5327 126.71 19.8663 126.952 20.291C127.204 20.7157 127.329 21.1967 127.329 21.734ZM123.975 23.047C124.478 23.047 124.851 22.9343 125.093 22.709C125.336 22.475 125.457 22.15 125.457 21.734C125.457 20.85 124.963 20.408 123.975 20.408H122.532V23.047H123.975ZM133.255 28.091C132.622 28.091 132.05 27.9827 131.539 27.766C131.036 27.5493 130.637 27.2373 130.343 26.83C130.048 26.4227 129.896 25.9417 129.888 25.387H131.838C131.864 25.7597 131.994 26.0543 132.228 26.271C132.47 26.4877 132.8 26.596 133.216 26.596C133.64 26.596 133.974 26.4963 134.217 26.297C134.459 26.089 134.581 25.8203 134.581 25.491C134.581 25.2223 134.498 25.0013 134.334 24.828C134.169 24.6547 133.961 24.5203 133.71 24.425C133.467 24.321 133.129 24.2083 132.696 24.087C132.106 23.9137 131.625 23.7447 131.253 23.58C130.889 23.4067 130.572 23.151 130.304 22.813C130.044 22.4663 129.914 22.007 129.914 21.435C129.914 20.8977 130.048 20.4297 130.317 20.031C130.585 19.6323 130.962 19.329 131.448 19.121C131.933 18.9043 132.488 18.796 133.112 18.796C134.048 18.796 134.806 19.0257 135.387 19.485C135.976 19.9357 136.301 20.5683 136.362 21.383H134.36C134.342 21.071 134.208 20.8153 133.957 20.616C133.714 20.408 133.389 20.304 132.982 20.304C132.626 20.304 132.34 20.395 132.124 20.577C131.916 20.759 131.812 21.0233 131.812 21.37C131.812 21.6127 131.89 21.8163 132.046 21.981C132.21 22.137 132.41 22.267 132.644 22.371C132.886 22.4663 133.224 22.579 133.658 22.709C134.247 22.8823 134.728 23.0557 135.101 23.229C135.473 23.4023 135.794 23.6623 136.063 24.009C136.331 24.3557 136.466 24.8107 136.466 25.374C136.466 25.8593 136.34 26.31 136.089 26.726C135.837 27.142 135.469 27.4757 134.984 27.727C134.498 27.9697 133.922 28.091 133.255 28.091Z" fill="white"/>
</svg>
